<svg xmlns="http://www.w3.org/2000/svg" width="320" height="200" viewBox="0 0 320 200">
<title>Top languages by bytes of code</title>
<rect x="0.5" y="0.5" width="319" height="199" rx="6" fill="#282a36" stroke="#44475a"/>
<text x="20" y="32" font-family="ui-monospace,monospace" font-size="15" font-weight="600" fill="#bd93f9">$ tokei --sort code</text>
<rect x="20" y="52" width="280" height="8" rx="4" fill="#44475a"/>
<clipPath id="bar"><rect x="20" y="52" width="280" height="8" rx="4"/></clipPath>
<rect x="20.00" y="52" width="191.63" height="8" fill="#4F5D95" clip-path="url(#bar)"/>
<rect x="210.63" y="52" width="30.40" height="8" fill="#f1e05a" clip-path="url(#bar)"/>
<rect x="240.03" y="52" width="17.33" height="8" fill="#f7523f" clip-path="url(#bar)"/>
<rect x="256.36" y="52" width="13.27" height="8" fill="#dea584" clip-path="url(#bar)"/>
<rect x="268.63" y="52" width="12.53" height="8" fill="#00ADD8" clip-path="url(#bar)"/>
<rect x="280.15" y="52" width="9.72" height="8" fill="#3178c6" clip-path="url(#bar)"/>
<rect x="288.88" y="52" width="3.67" height="8" fill="#89e051" clip-path="url(#bar)"/>
<rect x="291.55" y="52" width="3.16" height="8" fill="#3572A5" clip-path="url(#bar)"/>
<rect x="293.71" y="52" width="7.29" height="8" fill="#8b949e" clip-path="url(#bar)"/>
<circle cx="25" cy="82" r="5" fill="#4F5D95" stroke="#6272a4" stroke-width="0.75"/>
<text x="36" y="86" font-family="ui-monospace,monospace" font-size="11" fill="#f8f8f2">PHP</text>
<text x="148" y="86" text-anchor="end" font-family="ui-monospace,monospace" font-size="11" fill="#6272a4">68.1%</text>
<circle cx="165" cy="82" r="5" fill="#f1e05a" stroke="#6272a4" stroke-width="0.75"/>
<text x="176" y="86" font-family="ui-monospace,monospace" font-size="11" fill="#f8f8f2">JavaScript</text>
<text x="288" y="86" text-anchor="end" font-family="ui-monospace,monospace" font-size="11" fill="#6272a4">10.5%</text>
<circle cx="25" cy="104" r="5" fill="#f7523f" stroke="#6272a4" stroke-width="0.75"/>
<text x="36" y="108" font-family="ui-monospace,monospace" font-size="11" fill="#f8f8f2">Blade</text>
<text x="148" y="108" text-anchor="end" font-family="ui-monospace,monospace" font-size="11" fill="#6272a4">5.8%</text>
<circle cx="165" cy="104" r="5" fill="#dea584" stroke="#6272a4" stroke-width="0.75"/>
<text x="176" y="108" font-family="ui-monospace,monospace" font-size="11" fill="#f8f8f2">Rust</text>
<text x="288" y="108" text-anchor="end" font-family="ui-monospace,monospace" font-size="11" fill="#6272a4">4.4%</text>
<circle cx="25" cy="126" r="5" fill="#00ADD8" stroke="#6272a4" stroke-width="0.75"/>
<text x="36" y="130" font-family="ui-monospace,monospace" font-size="11" fill="#f8f8f2">Go</text>
<text x="148" y="130" text-anchor="end" font-family="ui-monospace,monospace" font-size="11" fill="#6272a4">4.1%</text>
<circle cx="165" cy="126" r="5" fill="#3178c6" stroke="#6272a4" stroke-width="0.75"/>
<text x="176" y="130" font-family="ui-monospace,monospace" font-size="11" fill="#f8f8f2">TypeScript</text>
<text x="288" y="130" text-anchor="end" font-family="ui-monospace,monospace" font-size="11" fill="#6272a4">3.1%</text>
<circle cx="25" cy="148" r="5" fill="#89e051" stroke="#6272a4" stroke-width="0.75"/>
<text x="36" y="152" font-family="ui-monospace,monospace" font-size="11" fill="#f8f8f2">Shell</text>
<text x="148" y="152" text-anchor="end" font-family="ui-monospace,monospace" font-size="11" fill="#6272a4">1.0%</text>
<circle cx="165" cy="148" r="5" fill="#3572A5" stroke="#6272a4" stroke-width="0.75"/>
<text x="176" y="152" font-family="ui-monospace,monospace" font-size="11" fill="#f8f8f2">Python</text>
<text x="288" y="152" text-anchor="end" font-family="ui-monospace,monospace" font-size="11" fill="#6272a4">0.8%</text>
<circle cx="25" cy="170" r="5" fill="#8b949e" stroke="#6272a4" stroke-width="0.75"/>
<text x="36" y="174" font-family="ui-monospace,monospace" font-size="11" fill="#f8f8f2">Other</text>
<text x="148" y="174" text-anchor="end" font-family="ui-monospace,monospace" font-size="11" fill="#6272a4">2.2%</text>
</svg>