<svg xmlns="http://www.w3.org/2000/svg" width="320" height="178" viewBox="0 0 320 178">
<title>Top languages by bytes of code</title>
<rect x="0.5" y="0.5" width="319" height="177" rx="6" fill="#ffffff" stroke="#d0d7de"/>
<text x="20" y="32" font-family="ui-monospace,monospace" font-size="15" font-weight="600" fill="#7135e0">$ gh repo list --json language</text>
<rect x="20" y="52" width="280" height="8" rx="4" fill="#eaeef2"/>
<clipPath id="bar"><rect x="20" y="52" width="280" height="8" rx="4"/></clipPath>
<rect x="20.00" y="52" width="83.96" height="8" fill="#dea584" clip-path="url(#bar)"/>
<rect x="102.96" y="52" width="73.59" height="8" fill="#4F5D95" clip-path="url(#bar)"/>
<rect x="175.56" y="52" width="52.85" height="8" fill="#00ADD8" clip-path="url(#bar)"/>
<rect x="227.41" y="52" width="32.11" height="8" fill="#3178c6" clip-path="url(#bar)"/>
<rect x="258.52" y="52" width="11.37" height="8" fill="#1D222D" clip-path="url(#bar)"/>
<rect x="268.89" y="52" width="11.37" height="8" fill="#f1e05a" clip-path="url(#bar)"/>
<rect x="279.26" y="52" width="11.37" height="8" fill="#e34c26" clip-path="url(#bar)"/>
<rect x="289.63" y="52" width="11.37" height="8" fill="#555555" clip-path="url(#bar)"/>
<circle cx="25" cy="82" r="5" fill="#dea584" stroke="#57606a" stroke-width="0.75"/>
<text x="36" y="86" font-family="ui-monospace,monospace" font-size="11" fill="#24292f">Rust</text>
<text x="148" y="86" text-anchor="end" font-family="ui-monospace,monospace" font-size="11" fill="#57606a">8</text>
<circle cx="165" cy="82" r="5" fill="#4F5D95" stroke="#57606a" stroke-width="0.75"/>
<text x="176" y="86" font-family="ui-monospace,monospace" font-size="11" fill="#24292f">PHP</text>
<text x="288" y="86" text-anchor="end" font-family="ui-monospace,monospace" font-size="11" fill="#57606a">7</text>
<circle cx="25" cy="104" r="5" fill="#00ADD8" stroke="#57606a" stroke-width="0.75"/>
<text x="36" y="108" font-family="ui-monospace,monospace" font-size="11" fill="#24292f">Go</text>
<text x="148" y="108" text-anchor="end" font-family="ui-monospace,monospace" font-size="11" fill="#57606a">5</text>
<circle cx="165" cy="104" r="5" fill="#3178c6" stroke="#57606a" stroke-width="0.75"/>
<text x="176" y="108" font-family="ui-monospace,monospace" font-size="11" fill="#24292f">TypeScript</text>
<text x="288" y="108" text-anchor="end" font-family="ui-monospace,monospace" font-size="11" fill="#57606a">3</text>
<circle cx="25" cy="126" r="5" fill="#1D222D" stroke="#57606a" stroke-width="0.75"/>
<text x="36" y="130" font-family="ui-monospace,monospace" font-size="11" fill="#24292f">PureScript</text>
<text x="148" y="130" text-anchor="end" font-family="ui-monospace,monospace" font-size="11" fill="#57606a">1</text>
<circle cx="165" cy="126" r="5" fill="#f1e05a" stroke="#57606a" stroke-width="0.75"/>
<text x="176" y="130" font-family="ui-monospace,monospace" font-size="11" fill="#24292f">JavaScript</text>
<text x="288" y="130" text-anchor="end" font-family="ui-monospace,monospace" font-size="11" fill="#57606a">1</text>
<circle cx="25" cy="148" r="5" fill="#e34c26" stroke="#57606a" stroke-width="0.75"/>
<text x="36" y="152" font-family="ui-monospace,monospace" font-size="11" fill="#24292f">HTML</text>
<text x="148" y="152" text-anchor="end" font-family="ui-monospace,monospace" font-size="11" fill="#57606a">1</text>
<circle cx="165" cy="148" r="5" fill="#555555" stroke="#57606a" stroke-width="0.75"/>
<text x="176" y="152" font-family="ui-monospace,monospace" font-size="11" fill="#24292f">C</text>
<text x="288" y="152" text-anchor="end" font-family="ui-monospace,monospace" font-size="11" fill="#57606a">1</text>
</svg>